<svg width="588" height="229" viewBox="0 0 588 229" fill="none" xmlns="http://www.w3.org/2000/svg">
<path d="M588 222.916H532.541V0H588V222.916Z" fill="white" fill-opacity="0.7"/>
<path d="M149.672 63.3285L117.934 222.916H79.1794L47.1067 63.3285V222.916H0V0H70.8271L98.5566 139.323L126.286 0H196.779V222.916H149.672V63.3285Z" fill="white" fill-opacity="0.7"/>
<path d="M368.5 167.187C368.5 205.818 335.425 227.983 294.666 227.983C254.241 227.983 220.832 205.818 220.832 167.187V0H276.291V166.237C276.291 175.737 284.643 183.653 294.666 183.653C304.689 183.653 313.041 176.053 313.041 166.237V0H368.5V167.187Z" fill="white" fill-opacity="0.7"/>
<path d="M508.486 174.153C508.486 207.717 479.754 228.299 444.007 228.299C408.593 228.299 379.861 207.717 379.861 174.153C379.861 165.604 379.861 153.255 379.861 141.539H429.307V174.153C429.307 180.486 434.652 185.553 441.334 185.553C448.016 185.553 453.361 180.486 453.361 174.153V0H508.82L508.486 174.153Z" fill="white" fill-opacity="0.7"/>
</svg>
