<svg width="1800" height="442" viewBox="0 0 1800 442" fill="none" xmlns="http://www.w3.org/2000/svg">
<path d="M375.317 312.555H415.484V254.814H369.04V212.135H430.547V154.394H369.04V109.206H410.463V48.9543H146.863C151.884 42.6781 155.65 35.1466 160.671 28.8704L99.1639 0C82.8458 25.1048 62.762 50.2095 37.6572 74.059C25.1048 86.6114 12.5524 97.9086 0 107.951L55.2305 145.608C61.5067 140.587 67.7829 135.566 74.0591 130.545V154.394H13.8076V212.135H74.0591V254.814H31.381V312.555H72.8039C57.741 341.425 32.6362 376.572 13.8076 392.89L66.5277 433.058C92.8877 407.953 116.737 374.061 135.566 333.894L94.1429 312.555H358.998L316.32 337.659C337.659 365.275 361.509 400.421 375.317 429.292L434.313 400.421C420.505 374.061 396.656 337.659 375.317 312.555ZM305.023 254.814H288.705V212.135H305.023V254.814ZM228.454 212.135V254.814H210.88V212.135H228.454ZM212.135 154.394V109.206H229.709V154.394C228.454 154.394 212.135 154.394 212.135 154.394ZM305.023 154.394H288.705V109.206H305.023V154.394ZM135.566 109.206H151.884V154.394H135.566V109.206ZM135.566 212.135H151.884V254.814H135.566V212.135Z" fill="#ACACAC"/>
<path d="M143.097 332.635C151.883 352.719 166.946 409.204 166.946 426.778L229.708 412.97C222.177 370.292 215.901 346.442 200.838 318.827L143.097 332.635Z" fill="#ACACAC"/>
<path d="M228.451 336.401C239.748 355.229 259.832 406.694 262.343 426.778L326.36 410.46C317.573 371.547 306.276 346.442 289.958 318.827L228.451 336.401Z" fill="#ACACAC"/>
<path d="M891.213 56.4854H695.396V66.5273L653.973 28.8701C621.337 48.9539 569.872 65.2721 510.876 72.8035C509.62 72.8035 509.62 72.8035 508.365 72.8035V411.718H577.403V389.124H684.099V321.341H577.403V242.261H684.099V178.244H577.403V123.013C623.847 114.226 664.015 100.419 694.141 84.1007V433.057H764.434V121.758H820.92V321.341H775.731L799.581 392.89H833.472C864.853 392.89 891.213 369.04 891.213 338.914C891.213 332.638 891.213 56.4854 891.213 56.4854Z" fill="#ACACAC"/>
<path d="M1252.74 332.639C1257.76 327.618 1264.04 322.597 1270.31 316.321C1289.14 297.492 1305.46 278.664 1318.01 259.835L1299.18 241.007V58.9968H1182.45V5.02148H1107.13V58.9968H987.883V356.489C972.82 360.254 959.013 362.765 945.205 365.275L960.268 435.569C967.799 434.313 975.331 431.803 982.862 430.548C1046.88 415.485 1105.88 396.656 1151.06 379.083V335.15C1193.74 380.338 1253.99 419.251 1320.52 441.845L1356.92 380.338C1315.5 366.53 1280.35 350.212 1252.74 332.639ZM1222.61 195.818H1059.43V180.755H1222.61V195.818ZM1233.91 256.069C1228.89 262.346 1222.61 269.877 1216.34 276.153C1211.32 281.174 1206.29 287.45 1201.27 292.471C1191.23 281.174 1181.19 268.622 1174.91 256.069C1176.17 256.069 1233.91 256.069 1233.91 256.069ZM1222.61 116.738V131.801H1059.43V116.738H1222.61ZM1060.69 338.915V256.069H1095.83C1104.62 276.153 1117.17 297.492 1133.49 316.321C1110.9 323.852 1087.05 331.384 1060.69 338.915Z" fill="#ACACAC"/>
<path d="M1722.18 36.3975H1478.67V209.621H1722.18V36.3975ZM1545.19 94.1386H1654.4V150.624H1545.19V94.1386Z" fill="#ACACAC"/>
<path d="M1399.57 229.709V433.058H1467.35V417.995H1521.33V433.058H1589.11V229.709H1399.57ZM1467.35 361.509V289.961H1521.33V361.509H1467.35Z" fill="#ACACAC"/>
<path d="M1800 229.709H1609.2V433.058H1678.24V417.995H1730.96V433.058H1800V229.709ZM1676.99 361.509V289.961H1729.71V361.509H1676.99Z" fill="#ACACAC"/>
</svg>
