<svg width="40" height="40" viewBox="0 0 40 40" fill="none" xmlns="http://www.w3.org/2000/svg">
<path d="M31 26.5H13.4808L7.4231 4H3.5" stroke="#1F1F1F" stroke-width="1.81818" stroke-linecap="round" stroke-linejoin="round"/>
<path d="M12.2692 21.9999H32.7308L36.5 7.99992H8.5" stroke="#1F1F1F" stroke-width="1.81818" stroke-linecap="round" stroke-linejoin="round"/>
<path d="M14.2013 30.7501C15.0052 30.286 15.9956 30.286 16.7994 30.7501C17.6033 31.2142 18.0985 32.0719 18.0985 33.0001C18.0985 33.9283 17.6033 34.786 16.7994 35.2501C15.9956 35.7142 15.0052 35.7142 14.2013 35.2501C13.3975 34.786 12.9023 33.9283 12.9023 33.0001C12.9023 32.0719 13.3975 31.2142 14.2013 30.7501Z" stroke="#1F1F1F" stroke-width="1.81818" stroke-linecap="round" stroke-linejoin="round"/>
<path d="M27.2013 30.7501C28.0052 30.286 28.9956 30.286 29.7994 30.7501C30.6033 31.2142 31.0985 32.0719 31.0985 33.0001C31.0985 33.9283 30.6033 34.786 29.7994 35.2501C28.9956 35.7142 28.0052 35.7142 27.2013 35.2501C26.3975 34.786 25.9023 33.9283 25.9023 33.0001C25.9023 32.0719 26.3975 31.2142 27.2013 30.7501Z" stroke="#1F1F1F" stroke-width="1.81818" stroke-linecap="round" stroke-linejoin="round"/>
</svg>
