<svg width="284" height="48" viewBox="0 0 284 48" fill="none" xmlns="http://www.w3.org/2000/svg">
<path d="M165.693 31.2302H169.028V26.4354H165.172V22.8914H170.279V18.0965H165.172V14.3441H168.611V9.34074H146.722C147.139 8.81956 147.452 8.19415 147.869 7.67297L142.761 5.27556C141.406 7.36027 139.738 9.44498 137.653 11.4255C136.611 12.4678 135.569 13.4059 134.526 14.2398L139.113 17.3669C139.634 16.9499 140.155 16.533 140.676 16.1161V18.0965H135.673V22.8914H140.676V26.4354H137.132V31.2302H140.572C139.321 33.6276 137.236 36.5462 135.673 37.9013L140.051 41.2368C142.24 39.1521 144.22 36.3378 145.784 33.0022L142.344 31.2302H164.338L160.794 33.3149C162.566 35.6081 164.546 38.5267 165.693 40.9241L170.592 38.5267C169.445 36.3378 167.465 33.3149 165.693 31.2302ZM159.856 26.4354H158.501V22.8914H159.856V26.4354ZM153.497 22.8914V26.4354H152.038V22.8914H153.497ZM152.142 18.0965V14.3441H153.601V18.0965C153.497 18.0965 152.142 18.0965 152.142 18.0965ZM159.856 18.0965H158.501V14.3441H159.856V18.0965ZM145.784 14.3441H147.139V18.0965H145.784V14.3441ZM145.784 22.8914H147.139V26.4354H145.784V22.8914Z" fill="#1F1F1F"/>
<path d="M146.409 32.898C147.139 34.5657 148.39 39.2563 148.39 40.7156L153.601 39.569C152.976 36.025 152.455 34.0446 151.204 31.7514L146.409 32.898Z" fill="#1F1F1F"/>
<path d="M153.497 33.2107C154.435 34.7742 156.103 39.0479 156.311 40.7156L161.627 39.3606C160.898 36.1293 159.96 34.0446 158.605 31.7514L153.497 33.2107Z" fill="#1F1F1F"/>
<path d="M208.534 9.96627H192.273V10.8001L188.834 7.67308C186.123 9.34085 181.85 10.6959 176.951 11.3213C176.846 11.3213 176.846 11.3213 176.742 11.3213V39.4649H182.475V37.5887H191.335V31.96H182.475V25.3931H191.335V20.0771H182.475V15.4907C186.332 14.7611 189.667 13.6145 192.169 12.2594V41.2369H198.006V15.3865H202.697V31.96H198.944L200.925 37.9014H203.739C206.345 37.9014 208.534 35.9209 208.534 33.4193C208.534 32.8981 208.534 9.96627 208.534 9.96627Z" fill="#1F1F1F"/>
<path d="M238.555 32.898C238.972 32.481 239.493 32.0641 240.015 31.5429C241.578 29.9794 242.933 28.4159 243.976 26.8523L242.412 25.2888V10.1746H232.718V5.69249H226.464V10.1746H216.562V34.8785C215.311 35.1912 214.164 35.3996 213.018 35.6081L214.268 41.4453C214.894 41.3411 215.519 41.1326 216.145 41.0284C221.461 39.7775 226.36 38.214 230.112 36.7547V33.1065C233.656 36.8589 238.66 40.0902 244.184 41.9665L247.207 36.8589C243.767 35.7123 240.848 34.3573 238.555 32.898ZM236.054 21.5363H222.503V20.2855H236.054V21.5363ZM236.992 26.5396C236.575 27.0608 236.054 27.6862 235.532 28.2074C235.116 28.6243 234.699 29.1455 234.282 29.5624C233.448 28.6243 232.614 27.582 232.093 26.5396C232.197 26.5396 236.992 26.5396 236.992 26.5396ZM236.054 14.9695V16.2203H222.503V14.9695H236.054ZM222.607 33.4192V26.5396H225.526C226.255 28.2074 227.298 29.9794 228.653 31.5429C226.777 32.1683 224.796 32.7937 222.607 33.4192Z" fill="#1F1F1F"/>
<path d="M277.538 8.29836H257.316V22.6829H277.538V8.29836ZM262.841 13.0932H271.909V17.7838H262.841V13.0932Z" fill="#1F1F1F"/>
<path d="M250.748 24.3507V41.2369H256.377V39.986H260.859V41.2369H266.488V24.3507H250.748ZM256.377 35.2954V29.354H260.859V35.2954H256.377Z" fill="#1F1F1F"/>
<path d="M283.999 24.3507H268.155V41.2369H273.888V39.986H278.266V41.2369H283.999V24.3507ZM273.784 35.2954V29.354H278.162V35.2954H273.784Z" fill="#1F1F1F"/>
<path d="M116.941 46.7765H105.911V0H116.941V46.7765Z" fill="#1F1F1F"/>
<path d="M29.7669 13.2888L23.4547 46.7765H15.7472L9.36859 13.2888V46.7765H0V0H14.0861L19.601 29.2353L25.1158 0H39.1355V46.7765H29.7669V13.2888Z" fill="#1F1F1F"/>
<path d="M73.2872 35.0824C73.2872 43.1886 66.7092 47.8396 58.6031 47.8396C50.5633 47.8396 43.9189 43.1886 43.9189 35.0824V0H54.9486V34.8831C54.9486 36.8764 56.6097 38.5375 58.6031 38.5375C60.5964 38.5375 62.2575 36.9428 62.2575 34.8831V0H73.2872V35.0824Z" fill="#1F1F1F"/>
<path d="M101.127 36.5442C101.127 43.5872 95.4126 47.9061 88.3031 47.9061C81.2601 47.9061 75.5459 43.5872 75.5459 36.5442C75.5459 34.7502 75.5459 32.1589 75.5459 29.7004H85.3796V36.5442C85.3796 37.873 86.4427 38.9361 87.7716 38.9361C89.1005 38.9361 90.1636 37.873 90.1636 36.5442V0H101.193L101.127 36.5442Z" fill="#1F1F1F"/>
</svg>
