<svg width="49" height="18" viewBox="0 0 49 18" fill="none" xmlns="http://www.w3.org/2000/svg">
<path d="M49.0006 17.5756H44.3789V0H49.0006V17.5756Z" fill="#1F1F1F"/>
<path d="M12.4729 4.99307L9.82796 17.5756H6.59838L3.92562 4.99307V17.5756H0V0H5.90235L8.21317 10.9847L10.524 0H16.3985V17.5756H12.4729V4.99307Z" fill="#1F1F1F"/>
<path d="M30.7082 13.1817C30.7082 16.2275 27.9519 17.975 24.5553 17.975C21.1865 17.975 18.4023 16.2275 18.4023 13.1817V0H23.024V13.1068C23.024 13.8558 23.72 14.4799 24.5553 14.4799C25.3905 14.4799 26.0865 13.8807 26.0865 13.1068V0H30.7082V13.1817Z" fill="#1F1F1F"/>
<path d="M42.3732 13.7309C42.3732 16.3773 39.9788 18 36.9998 18C34.0486 18 31.6543 16.3773 31.6543 13.7309C31.6543 13.0569 31.6543 12.0832 31.6543 11.1595H35.7748V13.7309C35.7748 14.2302 36.2203 14.6297 36.7771 14.6297C37.3339 14.6297 37.7794 14.2302 37.7794 13.7309V0H42.401L42.3732 13.7309Z" fill="#1F1F1F"/>
</svg>
