<svg width="40" height="40" viewBox="0 0 40 40" fill="none" xmlns="http://www.w3.org/2000/svg">
<path d="M30 35.0001H10C8.89545 35.0001 8 34.1047 8 33.0001V32.3319C8 29.4256 9.80305 26.8243 12.5245 25.8043C17.3444 23.9978 22.6556 23.9978 27.4755 25.8043C30.197 26.8243 32 29.4256 32 32.3319V33.0001C32 34.1047 31.1046 35.0001 30 35.0001Z" stroke="#1F1F1F" stroke-width="1.81818" stroke-linecap="round" stroke-linejoin="round"/>
<path d="M16.9505 19.4336C18.8645 20.4168 21.1351 20.4168 23.0491 19.4336C24.8304 18.5186 26.1066 16.8521 26.5256 14.8939L26.6374 14.3712C27.0659 12.3687 26.6082 10.2788 25.382 8.63864L25.2025 8.39849C23.9761 6.75814 22.0479 5.79224 19.9998 5.79224C17.9517 5.79224 16.0235 6.75814 14.7972 8.39849L14.6176 8.63864C13.3914 10.2788 12.9337 12.3687 13.3622 14.3712L13.474 14.8939C13.893 16.8521 15.1693 18.5186 16.9505 19.4336Z" stroke="#1F1F1F" stroke-width="1.81818" stroke-linecap="round" stroke-linejoin="round"/>
</svg>
